#!OML:ASF X:\für Bonn\!DataBase\2005_08_12_Daniel\c3d\Daniel.ASF
:FULLY-SPECIFIED
:DEGREES
217
root 0.518448 16.2826 0.13753 -18.8942 -83.4308 4.01214
lowerback 19.2605 0.79763 2.13966
upperback -1.94998 0.940724 -4.35194
thorax -12.9734 0.0415827 -6.41773
lowerneck 8.84439 -5.11953 2.75291
upperneck 6.80396 -6.91639 2.21443
head 0.647581 -3.50357 0.364125
rclavicle 9.74045e-015 2.38542e-014
rhumerus 70.4586 -3.71294 -61.1415
rradius 40.3887
rwrist 32.9267
rhand -24.1641 370.191
rfingers 7.12502
rthumb 2.31888 340.224
lclavicle 9.74045e-015 2.38542e-014
lhumerus -142.79 209.435 -101.124
lradius 95.7796
lwrist 33.2524
lhand -16.4071 -3.20091
lfingers 7.12502
lthumb 9.80737 26.5507
rfemur -4.46409 1.97634 11.0206
rtibia 51.1927
rfoot 335.109 -10.7737
rtoes -15.4582
lfemur -10.0946 -12.4592 -15.4674
ltibia 56.7328
lfoot -23.8083 0.227885
ltoes -6.57796
218
root 0.548905 15.9908 0.141715 -18.203 -83.5144 2.97878
lowerback 19.6763 0.711882 2.20204
upperback -1.55203 0.867891 -4.18842
thorax -12.7641 0.0246401 -6.24394
lowerneck 8.37169 -5.03662 2.79426
upperneck 6.18426 -6.76144 1.98049
head 0.520954 -3.41833 0.281434
rclavicle -2.76311e-014 6.36111e-015
rhumerus 69.1393 -3.14549 -60.3031
rradius 42.5267
rwrist 32.6473
rhand -24.5369 370.267
rfingers 7.12502
rthumb 1.95879 340.296
lclavicle -2.76311e-014 6.36111e-015
lhumerus -143.39 209.555 -101.829
lradius 96.2714
lwrist 33.1679
lhand -16.2404 -3.05953
lfingers 7.12502
lthumb 9.96825 26.6844
rfemur -4.95179 1.75637 10.9341
rtibia 53.3888
rfoot 331.226 -9.9008
rtoes -16.6742
lfemur -10.3743 -12.5555 -15.4148
ltibia 58.8081
lfoot -28.1418 -0.421674
ltoes -6.85833
219
root 0.571342 15.746 0.144922 -17.4294 -83.6036 1.88084
lowerback 20.059 0.628203 2.25821
upperback -1.17764 0.794172 -4.02871
thorax -12.5624 0.00582422 -6.07047
lowerneck 7.88301 -4.93142 2.73459
upperneck 5.59101 -6.59543 1.86299
head 0.413577 -3.33028 0.248743
rclavicle -2.54444e-014 3.49861e-014
rhumerus 67.6664 -2.43038 -59.5895
rradius 44.6982
rwrist 32.4235
rhand -24.9981 370.506
rfingers 7.12502
rthumb 1.5134 340.532
lclavicle -2.54444e-014 3.49861e-014
lhumerus -143.999 209.776 -102.752
lradius 96.7541
lwrist 33.0897
lhand -16.0105 -2.85436
lfingers 7.12502
lthumb 10.19 26.8789
rfemur -5.56426 1.60158 10.8848
rtibia 55.4329
rfoot 328.186 -9.41835
rtoes -17.3326
lfemur -10.5586 -12.6533 -15.3683
ltibia 60.643
lfoot -31.684 -0.841328
ltoes -6.56232
220
root 0.584962 15.5545 0.150664 -16.8155 -83.7087 0.981669
lowerback 20.369 0.557571 2.33187
upperback -0.831258 0.734466 -3.91192
thorax -12.3485 -0.0106898 -5.95878
lowerneck 7.40707 -4.83824 2.81854
upperneck 4.98223 -6.43496 1.65939
head 0.293232 -3.24345 0.168986
rclavicle 1.59028e-014 1.90833e-014
rhumerus 65.9997 -1.61279 -58.5932
rradius 46.9327
rwrist 31.8539
rhand -25.4811 370.687
rfingers 7.12502
rthumb 1.04691 340.71
lclavicle 1.59028e-014 1.90833e-014
lhumerus -144.787 210.142 -103.755
lradius 97.2603
lwrist 32.8654
lhand -15.4153 -2.66786
lfingers 7.12502
lthumb 10.7642 27.0363
rfemur -6.26528 1.53732 10.8392
rtibia 57.3087
rfoot 326.087 -9.24299
rtoes -17.364
lfemur -10.713 -12.7786 -15.3789
ltibia 62.2392
lfoot -34.3656 -1.02188
ltoes -6.1728
221
root 0.595313 15.41 0.156958 -16.1067 -83.8141 0.0320178
lowerback 20.6183 0.4897 2.36967
upperback -0.502958 0.67248 -3.76783
thorax -12.1214 -0.0249196 -5.79299
lowerneck 6.88776 -4.73983 2.86597
upperneck 4.40905 -6.27841 1.48208
head 0.193396 -3.15952 0.101272
rclavicle -1.66979e-014 1.11319e-014
rhumerus 64.0399 -0.561052 -57.3081
rradius 49.4397
rwrist 30.9571
rhand -26.0377 370.774
rfingers 7.12502
rthumb 0.50938 340.795
lclavicle -1.66979e-014 1.11319e-014
lhumerus -145.924 210.565 -104.609
lradius 97.8225
lwrist 32.4241
lhand -14.4186 -2.57007
lfingers 7.12502
lthumb 11.7255 27.0818
rfemur -6.98742 1.50621 10.8291
rtibia 59.0167
rfoot 324.906 -9.14636
rtoes -17.324
lfemur -10.9689 -12.9164 -15.3742
ltibia 63.6329
lfoot -36.2744 -0.992075
ltoes -5.8723
222
root 0.607517 15.2994 0.164093 -15.372 -83.9606 -0.888763
lowerback 20.8192 0.434501 2.44789
upperback -0.210449 0.629448 -3.67188
thorax -11.905 -0.0365464 -5.71139
lowerneck 6.36321 -4.64068 2.99471
upperneck 3.85473 -6.12145 1.30662
head 0.0985001 -3.07545 0.020931
rclavicle -2.08724e-014 1.19271e-014
rhumerus 61.6021 0.682397 -56.1643
rradius 52.3834
rwrist 30.1295
rhand -26.5625 370.837
rfingers 7.12502
rthumb 0.00250909 340.858
lclavicle -2.08724e-014 1.19271e-014
lhumerus -147.543 211.085 -105.239
lradius 98.4555
lwrist 31.724
lhand -12.7837 -2.64605
lfingers 7.12502
lthumb 13.3017 26.9094
rfemur -7.76292 1.52072 10.8443
rtibia 60.5784
rfoot 324.442 -8.94732
rtoes -17.1958
lfemur -11.3257 -13.0249 -15.3667
ltibia 64.8521
lfoot -37.5813 -0.792614
ltoes -5.62964
